<?xml version="1.0" encoding="UTF-8"?>
<svg width="302px" height="223px" viewBox="0 0 302 223" version="1.1" xmlns="http://www.w3.org/2000/svg" xmlns:xlink="http://www.w3.org/1999/xlink">
    <!-- Generator: Sketch 52.2 (67145) - http://www.bohemiancoding.com/sketch -->
    <title>Group 12</title>
    <desc>Created with Sketch.</desc>
    <g id="Exploration_IB" stroke="none" stroke-width="1" fill="none" fill-rule="evenodd">
        <g id="02_Solutions-Copy-6" transform="translate(-1029.000000, -380.000000)">
            <g id="Solutions" transform="translate(0.000000, 64.000000)">
                <g id="Group-12" transform="translate(1030.000000, 316.000000)">
                    <path d="M59.8474184,148.608471 C59.8474184,148.608471 69.5871953,152.872574 54.5174529,164.003054 C54.5174529,164.003054 24.6939806,182.995724 47.5879907,155.378557 C55.022735,146.41062 59.8474184,148.608471 59.8474184,148.608471" id="Fill-7" fill="#E44335" style="mix-blend-mode: multiply;" transform="translate(50.943616, 159.370675) rotate(-240.000000) translate(-50.943616, -159.370675) "></path>
                    <polygon id="Stroke-3" stroke="#B7B7B7" points="44.8465065 0 100.787678 143.706323 0 99.4165269"></polygon>
                    <path d="M295.008042,222.281824 C294.566098,172.344456 253.882662,131.99698 203.757985,131.99698 C153.634126,131.99698 112.949872,172.344456 112.508746,222.281824 L145.809255,222.281824 L203.591028,222.281824 L261.455461,222.281824 L295.008042,222.281824 Z" id="Stroke-7" stroke="#B7B7B7" style="mix-blend-mode: multiply;"></path>
                    <path d="M138.348569,71.2209481 C137.967417,70.586543 137.61619,69.9283198 137.270849,69.2687377 C136.3437,67.4968886 135.489327,65.1004439 136.367412,63.180493 C136.691074,62.472612 137.298599,61.9547137 137.955833,61.5869165 C142.305312,59.1558066 148.638202,59.4466702 152.565366,62.9542686 C155.232333,65.3380651 156.820343,70.4519222 153.612878,72.8504707 C150.200187,75.4034911 145.397603,77.6442357 141.403119,74.7618521 C140.108465,73.8263708 139.162128,72.5775021 138.348569,71.2209481 Z" id="Fill-8" fill="#34A253" transform="translate(145.699065, 68.057353) rotate(-1.000000) translate(-145.699065, -68.057353) "></path>
                    <path d="M279.745899,138.859147 C276.307121,134.264319 278.085319,127.398939 283.873362,123.011889 C289.661404,118.62563 296.039858,119.10755 299.190781,123.952818 C302.342479,128.798086 300.204463,135.464378 295.093497,139.616788 C289.982532,143.769198 283.472532,143.838721 279.745899,138.859147" id="Fill-4" fill="#FABB05"></path>
                    <path d="M1.87474779,35.2211615 C5.6279155,22.6912906 17.597625,18.0860305 29.6204049,22.8284026 C41.6431848,27.5715494 45.6515586,40.1169132 41.026632,50.0617961 C36.4024859,60.0066791 24.9962588,63.8318724 12.3561457,59.2421052 C-0.283187063,54.6515633 0.178837325,40.8822617 1.87474779,35.2211615" id="Fill-6" fill="#3E82F7" style="mix-blend-mode: multiply;"></path>
                </g>
            </g>
        </g>
    </g>
</svg>